<svg xmlns="http://www.w3.org/2000/svg" width="56.108" height="56.107" viewBox="69.992 -0.002 28.054 28.054"><path d="M81.512 15.194a4.093 4.093 0 0 1-7.844 0h-2.506a1.169 1.169 0 1 1 0-2.338h2.506a4.093 4.093 0 0 1 7.844 0h15.364a1.169 1.169 0 1 1 0 2.338H81.512Zm5.014 7.598a4.093 4.093 0 0 1 7.843 0h2.507a1.169 1.169 0 1 1 0 2.338h-2.507a4.093 4.093 0 0 1-7.843 0H71.162a1.169 1.169 0 1 1 0-2.338h15.364Zm0-19.872a4.093 4.093 0 0 1 7.843 0h2.507a1.169 1.169 0 1 1 0 2.338h-2.507a4.093 4.093 0 0 1-7.843 0H71.162a1.169 1.169 0 1 1 0-2.338h15.364Zm3.922 2.923a1.753 1.753 0 1 0 0-3.507 1.753 1.753 0 0 0 0 3.507Zm0 19.87a1.753 1.753 0 1 0 0-3.506 1.753 1.753 0 0 0 0 3.506ZM77.59 12.271a1.753 1.753 0 1 0 0 3.507 1.753 1.753 0 0 0 0-3.507Z" fill="#fff" fill-rule="evenodd" data-name="Path 134"/></svg>