<svg xmlns="http://www.w3.org/2000/svg" width="286" height="286" viewBox="-5840 3777 143 143"><g data-name="CompositeLayer"><g data-name="Path 144"><path d="M-5768.5 3777c39.488 0 71.5 32.012 71.5 71.5s-32.012 71.5-71.5 71.5-71.5-32.012-71.5-71.5 32.012-71.5 71.5-71.5Z" fill="#eee" fill-rule="evenodd"/><path d="M-5768.5 3778c38.936 0 70.5 31.564 70.5 70.5s-31.564 70.5-70.5 70.5-70.5-31.564-70.5-70.5 31.564-70.5 70.5-70.5Z" stroke-dasharray="9.860100000000001" stroke-linejoin="round" stroke-linecap="round" stroke-width="1.97202" stroke="#86c440" fill="transparent"/></g><g data-name="noun-car-1066952"><path d="M130.262 100.8c-5.086 0-9.042 2.176-12.014 5.05-2.487 2.404-4.345 5.28-5.875 7.894a6.574 6.574 0 0 0-2.498-.504c-2.157 0-3.97.838-5.05 2.205-1.08 1.369-1.412 3.135-1.117 4.785.49 2.738 2.73 5.312 6.14 6.113l-1.594 5.077c-.053.165-.08.358-.08.531v18.606c0 2.578 2.139 4.678 4.705 4.678h4.598c2.566 0 4.73-2.099 4.73-4.678v-1.276h37.665v1.276c0 2.578 2.138 4.678 4.704 4.678h4.598c2.57 0 4.731-2.105 4.731-4.678v-18.606c0-.173-.027-.366-.08-.531l-1.594-5.077c3.41-.801 5.622-3.375 6.113-6.113.296-1.65-.008-3.416-1.09-4.785-1.081-1.368-2.891-2.205-5.05-2.205-.879 0-1.73.188-2.498.504-1.53-2.614-3.389-5.49-5.874-7.894-2.971-2.874-6.932-5.05-12.014-5.05H130.26Zm0 3.402h21.556c4.138 0 7.121 1.648 9.648 4.093 2.529 2.445 4.478 5.71 6.14 8.638.123.217.302.388.505.532a1.72 1.72 0 0 0 1.435.266c.24-.065.448-.185.638-.346a3.111 3.111 0 0 1 2.02-.744c1.355 0 1.998.432 2.393.93.394.5.55 1.207.398 2.048-.301 1.68-1.792 3.588-5.023 3.588-.266 0-.533.066-.77.186-.238.12-.428.29-.586.505a1.793 1.793 0 0 0-.319.744c-.043.262-.027.517.054.77l2.153 6.778v18.368c0 .696-.582 1.275-1.33 1.275h-4.597a1.288 1.288 0 0 1-1.303-1.275v-2.978a1.753 1.753 0 0 0-.505-1.196 1.626 1.626 0 0 0-.531-.372 1.775 1.775 0 0 0-.665-.133h-41.066a1.753 1.753 0 0 0-1.223.505c-.157.158-.26.353-.345.559a1.642 1.642 0 0 0-.132.637v2.978c0 .69-.595 1.275-1.33 1.275h-4.597a1.289 1.289 0 0 1-1.303-1.275V132.19l2.153-6.777c.08-.254.097-.509.054-.771a1.79 1.79 0 0 0-.32-.744 1.72 1.72 0 0 0-.61-.505 1.608 1.608 0 0 0-.744-.186c-3.231 0-4.75-1.908-5.05-3.588-.15-.84.03-1.548.425-2.047.394-.5 1.04-.93 2.392-.93.784 0 1.48.288 2.02.743.19.161.398.282.638.346a1.73 1.73 0 0 0 1.435-.266c.204-.144.356-.315.478-.532 1.663-2.928 3.638-6.193 6.167-8.638 2.529-2.445 5.506-4.093 9.648-4.093Z" fill-rule="evenodd" fill="url(&quot;#a&quot;)" transform="translate(-5909.605 3720.2)" data-name="Path 126"/><path d="M212.208 138.23c-9.005 0-12.896 7.642-15.15 10.507a1.7 1.7 0 0 0 1.343 2.753l21.583-.084h.013l21.573.084a1.701 1.701 0 0 0 1.344-2.753c-2.255-2.865-6.144-10.507-15.15-10.507h-15.556Z" fill-rule="evenodd" fill="url(&quot;#b&quot;)" transform="translate(-5988.555 3688.455)" data-name="Path 127"/><path d="M188.202 332.61a1.7 1.7 0 0 0-1.701 1.7v4.687c0 .939.762 1.7 1.7 1.7h10.463c.94 0 1.7-.761 1.7-1.7v-2.339c0-2.232-1.852-4.048-4.073-4.048h-8.09Z" fill-rule="evenodd" fill="url(&quot;#c&quot;)" transform="translate(-5979.91 3523.598)" data-name="Path 128"/><path d="M421.473 332.61c-2.221 0-4.073 1.816-4.073 4.048v2.339c0 .939.761 1.7 1.7 1.7h10.463c.94 0 1.7-.761 1.7-1.7v-4.687a1.7 1.7 0 0 0-1.7-1.7h-8.09Z" fill-rule="evenodd" fill="url(&quot;#d&quot;)" transform="translate(-6175.74 3523.598)" data-name="Path 129"/></g></g><defs><linearGradient x1="1.17" y1=".5" x2="0" y2=".554" id="a"><stop stop-color="#86c440" offset="0"/><stop stop-color="#239b62" offset="1"/></linearGradient><linearGradient x1="1.17" y1=".5" x2="0" y2=".554" id="b"><stop stop-color="#86c440" offset="0"/><stop stop-color="#239b62" offset="1"/></linearGradient><linearGradient x1="1.17" y1=".5" x2="0" y2=".554" id="c"><stop stop-color="#86c440" offset="0"/><stop stop-color="#239b62" offset="1"/></linearGradient><linearGradient x1="1.17" y1=".5" x2="0" y2=".554" id="d"><stop stop-color="#86c440" offset="0"/><stop stop-color="#239b62" offset="1"/></linearGradient></defs></svg>