<svg xmlns="http://www.w3.org/2000/svg" width="118.965" height="39.835" viewBox="0 0 118.965 39.835">
  <g id="robin-subaru" transform="translate(-8.504 -66.954)" opacity="0.5">
    <path id="Path_90" data-name="Path 90" d="M116.968,117.706H113.14l1.9-3.491,1.928,3.491Zm1.869,3.461h2.755l-5.114-9.342H113.6l-5.053,9.342h2.726l.919-1.716h5.758Zm-18.928-5.576h4.809c.612,0,1.04-.154,1.04-.917a.918.918,0,0,0-1.01-1.011H99.909v1.928h0Zm0,3.736h5.084c.674,0,1.072-.336,1.072-1.164,0-.766-.428-.8-1.042-.8H99.908Zm-2.482,1.87v-9.372H105.3c1.715,0,2.88.489,2.88,2.419a2.491,2.491,0,0,1-.613,1.838,1.235,1.235,0,0,1-.551.307,2.064,2.064,0,0,1,1.533,2.113c.03,2.175-1.134,2.7-3.124,2.7h-8Zm27.443-7.535h4.472a3.7,3.7,0,0,1,.826.214,1.364,1.364,0,0,1,.766,1.317c0,1.042-.305,1.563-1.654,1.563H124.87v-3.093Zm0,4.839h4.809c1.194,0,1.317.735,1.317,1.777v.888h2.511v-1.072a2.761,2.761,0,0,0-1.44-2.573,3.523,3.523,0,0,0,1.042-1.164,3.416,3.416,0,0,0,.337-1.593c-.061-2.268-.828-2.94-3.032-2.94h-8.148v9.342h2.6V118.5Zm-45.329-.949c.643,0,1.348-.03,1.348.735,0,.8-.307,1.072-1.287,1.04h-3.92c-.949,0-1.47.062-1.47-.8H71.394v.337c0,2.144,1.011,2.328,2.94,2.328h6.218c2.144,0,2.971-.581,2.971-2.88,0-2.45-1.011-2.6-3.154-2.664l-5.36-.215c-.674,0-.949-.152-.949-1.071a.9.9,0,0,1,.888-.949H79.48c.613.03,1.041.275,1.1.979h2.787a3.584,3.584,0,0,0-.306-1.684c-.674-1.1-1.991-1.134-3.124-1.134l-2.695-.03a21.132,21.132,0,0,0-4.2.276c-1.47.4-1.746,1.347-1.746,2.726,0,1.745.551,2.694,2.42,2.787l5.818.215ZM93.966,121.2a1.926,1.926,0,0,0,2.205-2.205v-7.167H93.66v6.218c-.03,1.408-.03,1.285-1.654,1.285H88.852c-1.532,0-1.624.062-1.685-1.285v-6.218H84.687v7.2c0,1.563.582,2.175,2.174,2.175h7.1Zm49.893,0a1.926,1.926,0,0,0,2.207-2.205v-7.167h-2.482v6.218c-.061,1.408-.061,1.285-1.654,1.285h-3.154c-1.531,0-1.623.062-1.684-1.285v-6.218h-2.512v7.2c0,1.563.612,2.175,2.205,2.175h7.074Z" transform="translate(-20.29 -14.408)" fill-rule="evenodd"/>
    <path id="Path_91" data-name="Path 91" d="M75.634,79.907v4.862a4.257,4.257,0,0,1-2.614,4.1q-2.61,1.265-8.425,1.262-5.84,0-8.469-1.262a4.255,4.255,0,0,1-2.641-4.1V79.907a4.284,4.284,0,0,1,2.649-4.124q2.649-1.279,8.461-1.276t8.425,1.276A4.293,4.293,0,0,1,75.634,79.907Zm-7.9.217a2.351,2.351,0,0,0-.738-1.954,3.892,3.892,0,0,0-2.4-.584,3.957,3.957,0,0,0-2.432.594,2.35,2.35,0,0,0-.747,1.945v4.4a2.307,2.307,0,0,0,.739,1.93,3.994,3.994,0,0,0,2.44.58,3.917,3.917,0,0,0,2.4-.58,2.308,2.308,0,0,0,.738-1.93v-4.4ZM76.3,66.954v3.469h2.595v16.8H76.3v3.1H94.009c5.653,0,7.721-4.153,7.761-8.128.043-4.4-4.619-10.342-14.732-6.435V66.954ZM93.352,80.309a2.351,2.351,0,0,0-.739-1.954,3.889,3.889,0,0,0-2.4-.584,3.954,3.954,0,0,0-2.431.594,2.348,2.348,0,0,0-.747,1.944v4.4a2.3,2.3,0,0,0,.739,1.93,3.993,3.993,0,0,0,2.44.58,3.915,3.915,0,0,0,2.4-.58,2.307,2.307,0,0,0,.739-1.93v-4.4Zm8.526-5.491v3.053H103.7l.261,9.349h-2.085v3.1h26.577v-3.1h-2.693V79.006c0-1.134,5.82-1.134,5.82.7V87.22c0,1.382,0,3.1,1.563,3.1H142v-3.1h-2.779V79.529c0-6.362-9.881-4.3-13.462-4.013v-.7H115.08V77.87h2.085V87.22h-5.037v-12.4ZM107,66.954c2.823,0,5.124,1.336,5.124,2.973S109.825,72.9,107,72.9s-5.124-1.335-5.124-2.972S104.18,66.954,107,66.954Z" transform="translate(-14.533 0)" fill="#cc2229" fill-rule="evenodd"/>
    <path id="Path_92" data-name="Path 92" d="M8.5,66.954H31.365c10.325,0,8.805,14.283.74,14.283,4.921,2.219,6.612,11.379,12.2,11.379h83.166V95.7H39.157C27.128,95.7,27.128,81.237,22,81.237H19.768v5.984H22v3.1H8.5v-3.1h2.529v-16.8H8.5Zm11.264,3.469v7.448h6.614c3.065,0,3.48-7.448,0-7.448Z" transform="translate(0 0)" fill="#cc2229" fill-rule="evenodd"/>
  </g>
</svg>
