<svg xmlns="http://www.w3.org/2000/svg" width="149.967" height="38.002" viewBox="0 0 149.967 38.002">
  <g id="club-car-1" transform="translate(-8.502 -74.11)" opacity="0.5">
    <path id="Path_86" data-name="Path 86" d="M24.5,82.694H34.615L29.7,106.047H19.586Zm8.061,23.353h9.53l1.893-9.007c3.609-.117,4.835.294,4.449,2.12l-1.448,6.886h9.489l1.591-7.563c.211-1.005.73-3.476-3.425-4.6,4.225-1.149,5.14-3.567,5.494-5.245.823-3.917-2.385-5.95-7.326-5.95H37.469l-4.91,23.354ZM45.052,91.966,46.118,86.9c2.737.026,4.915-.087,4.421,2.257C49.9,92.191,48.835,91.908,45.052,91.966Z" transform="translate(-1.626 -1.259)" fill="#cc2131" fill-rule="evenodd"/>
    <path id="Path_87" data-name="Path 87" d="M49.895,106.3a40.637,40.637,0,0,1-7.741,3.1c-13.825,3.955-26.51-.128-28.336-9.12C12.768,95.1,15.537,89.448,20.7,84.816l.485-2.3C12.535,88.055,7.411,95.378,8.7,101.736c1.9,9.348,16.935,13.065,33.585,8.3a56.5,56.5,0,0,0,9.652-3.743H49.895v0ZM69,84.489c-1.9-9.35-16.935-13.067-33.588-8.3a56.266,56.266,0,0,0-9.653,3.742H27.8a40.819,40.819,0,0,1,7.741-3.1c13.826-3.955,26.512.129,28.338,9.123,1.049,5.156-1.711,10.805-6.853,15.433l-.486,2.3C65.176,98.157,70.291,90.841,69,84.489Z" transform="translate(0)" fill="#cc2131" fill-rule="evenodd"/>
    <path id="Path_88" data-name="Path 88" d="M123.57,93.907c.7,0,.7.9.7,1.3v7.127c0,.945-.225,1.345-.647,1.345-.573,0-1.1-.6-1.1-2.118V95.8C122.523,95.154,122.8,93.907,123.57,93.907Zm-5.407,12.681h4.286v-1.445a3.462,3.462,0,0,0,3.065,1.843c3.188-.023,3.212-3.214,3.212-5.106V94.6c0-.846,0-4.086-3.19-4.086a3.839,3.839,0,0,0-3.039,2.068V86.755h-4.335v19.833ZM99.8,86.755h4.409v19.833H99.8Zm6.075,4.163h4.41v10.763c0,.124,0,1.495.748,1.495.125,0,.972,0,.972-1.62V90.918h4.385v15.671h-4.111v-1.643c-.722.722-1.42,2.091-3.338,2.091-1.8,0-3.065-1.147-3.065-3.763V90.918h0Zm53.384,0h4.212v2.566c1.52-2.766.923-2.417,3.039-2.965v5.332c-1.121-.075-2.817-.075-2.817,2.441v8.3h-4.435Zm-7.809,9.939c0-1.231.958-1.588,1.81-2.191v2.713c0,1.4-.112,2-1.014,2a.771.771,0,0,1-.8-.823v-1.7Zm1.81,5.731h4.326v-11.6c0-3.151-2.626-4.278-5.233-4.278s-5.238,1.126-5.238,4.278v1.1h4.335V94.717c0-.631.192-1.152.9-1.152s.906.521.906,1.152c0,2.907-6.145,2.412-6.145,6.525v2.331c0,2.055,1.154,3.208,3.045,3.208a3.071,3.071,0,0,0,3.045-2.03h.055v1.836h0ZM98.324,94.081H93.565V91.366c0-.175,0-1.371-1.146-1.371-1.246,0-1.246,1.2-1.246,1.794v9.841c0,.172,0,1.643,1.221,1.643,1.172,0,1.172-1.472,1.172-2.091V98.616h4.759c0,4.062,0,8.348-6.029,8.348-5.88,0-5.88-4.786-5.88-5.807v-8.7c0-1.495,0-6.08,6.053-6.08C98.324,86.382,98.324,89.921,98.324,94.081Zm47.653,0h-4.758V91.366c0-.175,0-1.371-1.147-1.371-1.248,0-1.248,1.2-1.248,1.794v9.841c0,.172,0,1.643,1.225,1.643,1.17,0,1.17-1.472,1.17-2.091V98.616h4.758c0,4.062,0,8.348-6.029,8.348-5.88,0-5.88-4.786-5.88-5.807v-8.7c0-1.495,0-6.08,6.053-6.08,5.856,0,5.856,3.539,5.856,7.7ZM168.1,106.394a1.567,1.567,0,1,1,1.511-1.572A1.515,1.515,0,0,1,168.1,106.394Zm0,.236a1.8,1.8,0,1,0-1.608-.885,1.8,1.8,0,0,0,1.608.885Zm.289-1.726c.357-.01.633-.157.633-.553,0-.332-.182-.532-.715-.532h-.881v2.013h.25V104.9h.451l.575.928h.3l-.608-.928-.713-.2v-.713h.573c.248,0,.505.037.505.352,0,.409-.416.362-.7.362h-.375Z" transform="translate(-11.43 -1.8)" fill-rule="evenodd"/>
  </g>
</svg>
