<svg xmlns="http://www.w3.org/2000/svg" width="245.8" height="41.363" viewBox="0 0 245.8 41.363">
  <g id="car-audio24" transform="translate(-2.762 -46)" opacity="0.5">
    <circle id="Ellipse_9" data-name="Ellipse 9" cx="20.681" cy="20.681" r="20.681" transform="translate(163.76 46)" fill="#c00"/>
    <path id="Path_80" data-name="Path 80" d="M239.008,74.608a2.408,2.408,0,1,0,0,4.817,2.359,2.359,0,0,0,2.409-2.409A2.31,2.31,0,0,0,239.008,74.608Zm-25.416.914h-8.057v-.083l.332-.249c1-.914,1.993-1.827,2.907-2.742a23.306,23.306,0,0,0,1.993-2.076,15.21,15.21,0,0,0,2.159-2.99,8.787,8.787,0,0,0,1.081-3.239,6.8,6.8,0,0,0-.415-3.405,4.969,4.969,0,0,0-1.163-1.744,5.9,5.9,0,0,0-2.907-1.578A12.823,12.823,0,0,0,206.947,57c-1,0-1.911.083-2.907.166a18.2,18.2,0,0,0-2.907.664c-.5.166-.748.415-.665,1l.083,1.993c0,.665.25.914,1,.748h.165a12.508,12.508,0,0,1,2.907-.748,6.135,6.135,0,0,1,2.99.25,2.93,2.93,0,0,1,1.413,1.246,2.737,2.737,0,0,1,.332,1.411,5.351,5.351,0,0,1-.5,2.492,8.333,8.333,0,0,1-1.411,2.076,30.654,30.654,0,0,1-2.742,2.991L203.209,72.7c-.914.831-1.828,1.577-2.659,2.408a1.687,1.687,0,0,0-.664,1.163,10.125,10.125,0,0,0,0,2.243.725.725,0,0,0,.664.747h13.042a.678.678,0,0,0,.748-.664v-2.16C214.34,75.771,214.09,75.522,213.592,75.522Zm19.436-4.485a13.293,13.293,0,0,0-1.828,0h-.332V67.382c0-.664-.248-.914-.914-1h-2.243a1.043,1.043,0,0,0-.5.084c-.5.165-.5.581-.5,1.08v3.488h-5.482l.167-.25a4.969,4.969,0,0,1,.581-.831c.5-.747,1-1.5,1.411-2.242l1.414-2.16,1.079-1.744,1.746-2.658,1.494-2.326.5-.914c.085-.331-.083-.5-.415-.581h-2.99a1.368,1.368,0,0,0-1.246.664c-.581.831-1.079,1.744-1.578,2.575l-1.161,1.91-1.413,2.243-1.163,1.91-1.413,2.243-.831,1.412a3.308,3.308,0,0,0-.581,1.5v2.076a.783.783,0,0,0,.831.831h9.219v3.572c0,.581.332.831.914.831H230.2a.905.905,0,0,0,.748-.331,1.538,1.538,0,0,0,.165-.581V74.692h1.993c.5,0,.831-.249.831-.747V71.869A1.28,1.28,0,0,0,233.028,71.037Zm48.837,5.15a.642.642,0,0,0-.165-.415c-.25-.331-.582-.249-.914-.249h-7.807v-5.9H280.2a.854.854,0,0,0,.831-.914V66.884a.763.763,0,0,0-.748-.831H272.9V60.9h7.974c.581-.084.914-.332.914-.831V58a.744.744,0,0,0-.747-.748H269.409a.727.727,0,0,0-.747.5,2.3,2.3,0,0,0-.083.747V78.429c.083.332.25.664.665.664h11.792c.5-.083.747-.249.747-.747a18.792,18.792,0,0,0,.083-2.16Z" transform="translate(-33.386 -1.863)" fill="#fff"/>
    <path id="Path_81" data-name="Path 81" d="M272.012,61.17a8.2,8.2,0,0,0-2.742-2.326,12.912,12.912,0,0,0-3.405-1.246,17.322,17.322,0,0,0-2.907-.332c-1.744-.083-3.488,0-5.316,0h-1.411a.764.764,0,0,0-.831.748V78.363c.083.581.248.747.831.831h5.814a18.656,18.656,0,0,0,4.817-.581,10.8,10.8,0,0,0,3.157-1.412,9.7,9.7,0,0,0,3.157-3.9,15.785,15.785,0,0,0,.914-3.9,15.256,15.256,0,0,0-.415-4.734A9.7,9.7,0,0,0,272.012,61.17ZM269.6,68.894a8.627,8.627,0,0,1-.581,2.907,5.257,5.257,0,0,1-2.076,2.576,8.692,8.692,0,0,1-2.409,1,29.51,29.51,0,0,1-3.821.25h-.831c-.25,0-.25-.084-.25-.25V61.336c0-.249.083-.332.332-.332l3.655.084a6.5,6.5,0,0,1,4.4,2.242,7.13,7.13,0,0,1,1.081,2.076A8.1,8.1,0,0,1,269.6,68.894Zm12.791-8.057v5.15h7.392a.763.763,0,0,1,.746.831v1.827a.9.9,0,0,1-.831.914h-7.224v5.9h7.807a1.19,1.19,0,0,1,.914.249,1.4,1.4,0,0,1,.165.415V78.2c0,.5-.248.664-.746.748h-11.8a.9.9,0,0,1-.664-.665V58.345l.083-.747a.727.727,0,0,1,.748-.5h11.628a.743.743,0,0,1,.746.748v2.076c0,.5-.331.748-.914.831h-7.641A.9.9,0,0,1,282.394,60.837Z" transform="translate(-42.801 -1.88)"/>
    <path id="Path_82" data-name="Path 82" d="M205.547,75.365H213.6a.8.8,0,0,1,.748.664,9.38,9.38,0,0,1,0,2.16.679.679,0,0,1-.748.665H200.564c-.415-.084-.664-.25-.664-.748V75.864a1.526,1.526,0,0,1,.664-1.162c.915-.831,1.828-1.661,2.659-2.409l1.494-1.412a23.482,23.482,0,0,0,2.742-2.992,18.309,18.309,0,0,0,1.411-2.076,4.232,4.232,0,0,0,.5-2.492,2.748,2.748,0,0,0-1.745-2.658,6.133,6.133,0,0,0-2.99-.249,16.663,16.663,0,0,0-2.907.747h-.166c-.665.166-.914-.083-1-.747l-.083-1.993c0-.581.167-.831.665-1a16.516,16.516,0,0,1,2.907-.664,11.4,11.4,0,0,1,2.907-.166,9.262,9.262,0,0,1,2.575.415,7.622,7.622,0,0,1,2.907,1.578,4.947,4.947,0,0,1,1.163,1.744,6.8,6.8,0,0,1,.415,3.406,8.784,8.784,0,0,1-1.081,3.238,15.17,15.17,0,0,1-2.159,2.99c-.665.747-1.329,1.412-1.993,2.076-.914.914-1.91,1.827-2.907,2.741A1.151,1.151,0,0,1,205.547,75.365Z" transform="translate(-33.399 -1.789)" fill="#fff"/>
    <path id="Path_83" data-name="Path 83" d="M224.651,71.087h5.482V67.6c0-.415,0-.831.5-1.08a1.042,1.042,0,0,1,.5-.083h2.242c.665,0,.914.332.914,1v3.655h2.161c.415,0,.664.249.664.747V73.91c0,.5-.332.748-.831.748h-1.993v3.488a.792.792,0,0,1-.165.581.807.807,0,0,1-.747.332h-2.409a.854.854,0,0,1-.914-.831V74.657h-9.22a.785.785,0,0,1-.831-.831V71.75a2.992,2.992,0,0,1,.581-1.5l.831-1.412,1.413-2.243,1.163-1.91,1.411-2.243,1.163-1.91,1.578-2.576a1.461,1.461,0,0,1,1.246-.664h2.99c.332.084.5.249.415.581a3.223,3.223,0,0,1-.5.914c-.5.831-1,1.578-1.5,2.326l-1.744,2.657-1.078,1.747-1.411,2.16c-.5.748-1,1.5-1.413,2.243l-.581.831C224.734,70.921,224.734,71,224.651,71.087Z" transform="translate(-36.804 -1.914)" fill="#fefefe"/>
    <path id="Path_84" data-name="Path 84" d="M203.213,76.979a2.41,2.41,0,0,1,2.409-2.408,2.54,2.54,0,0,1,2.492,2.408,2.451,2.451,0,0,1-4.9,0Zm-93.773-8.8V57.958a.89.89,0,0,1,.831-.748h6.645a18.325,18.325,0,0,1,2.991.332,10.556,10.556,0,0,1,3.405,1.246,9.5,9.5,0,0,1,2.658,2.16,8.946,8.946,0,0,1,1.661,3.322,15.313,15.313,0,0,1,.415,5.483,11.039,11.039,0,0,1-1.163,3.987,12.007,12.007,0,0,1-1.494,2.076,6.872,6.872,0,0,1-2.326,1.744,15.461,15.461,0,0,1-2.076.831,18.471,18.471,0,0,1-5.648.664h-4.817a2,2,0,0,1-.748-.165c-.249-.166-.249-.5-.249-.748v-1.91C109.44,73.49,109.44,70.832,109.44,68.174Zm4.319,0v7.06c0,.249.083.332.332.332h1.744a15.19,15.19,0,0,0,2.741-.166,6.557,6.557,0,0,0,2.492-1A5.675,5.675,0,0,0,123.062,72a7.858,7.858,0,0,0,.581-2.408,9.5,9.5,0,0,0-.415-4.319,6.379,6.379,0,0,0-1.163-2.076,5.771,5.771,0,0,0-4.319-2.16c-1.246-.084-2.409-.084-3.655-.084-.332,0-.332,0-.332.332v6.894ZM153.378,56.8a12.038,12.038,0,0,1,3.405.5,10.751,10.751,0,0,1,2.492,1.08,8.053,8.053,0,0,1,2.492,2.243,10.68,10.68,0,0,1,1.413,2.741,14.741,14.741,0,0,1,.664,3.821,17.415,17.415,0,0,1-.248,4.153,9.961,9.961,0,0,1-1.163,3.322,12.19,12.19,0,0,1-1.744,2.326,9.2,9.2,0,0,1-2.659,1.745,13.768,13.768,0,0,1-1.744.5,13.445,13.445,0,0,1-4.07.249,11.371,11.371,0,0,1-3.322-.747,8.308,8.308,0,0,1-2.575-1.578,10.911,10.911,0,0,1-2.076-2.658,12,12,0,0,1-1-2.907,14.785,14.785,0,0,1-.167-5.4,9.836,9.836,0,0,1,.748-3.072,10.746,10.746,0,0,1,1.911-3.239,9.054,9.054,0,0,1,3.322-2.243,16.322,16.322,0,0,1,2.16-.581A16.488,16.488,0,0,1,153.378,56.8Zm-.166,19.02a5.452,5.452,0,0,0,2.657-.581,5.132,5.132,0,0,0,2.243-2.16,7.883,7.883,0,0,0,1-3.073,11.085,11.085,0,0,0-.914-6.729,5.075,5.075,0,0,0-1.744-1.993,4.877,4.877,0,0,0-2.659-.914,6.164,6.164,0,0,0-2.988.5,5.585,5.585,0,0,0-2.16,1.744,7.015,7.015,0,0,0-1.246,2.907,12.429,12.429,0,0,0-.25,2.409,9.514,9.514,0,0,0,1.329,5.4,5.258,5.258,0,0,0,1.828,1.744,5.069,5.069,0,0,0,2.907.748Zm-66.2-10.964V58.207c0-.415.084-.748.5-.914a.617.617,0,0,1,.415-.084H90.5a.785.785,0,0,1,.831.831V70.168a7.132,7.132,0,0,0,.415,2.657,3.675,3.675,0,0,0,2.326,2.492,4.859,4.859,0,0,0,3.738-.165,3.3,3.3,0,0,0,1.494-1.329,6.458,6.458,0,0,0,.914-3.488V58.457c0-.914.249-1.246,1.246-1.246h2.16c.664,0,.914.332,1,.914V71.248a11.924,11.924,0,0,1-.581,2.99,7.392,7.392,0,0,1-1.91,2.907,6.046,6.046,0,0,1-2.326,1.412,10.318,10.318,0,0,1-5.482.581,8.066,8.066,0,0,1-4.9-2.16,7.872,7.872,0,0,1-1.993-3.405,12.823,12.823,0,0,1-.5-3.572c.083-1.579.083-3.323.083-5.15ZM137.679,60.7V75.567h1.746a.831.831,0,0,1,.914.914v1.744a.764.764,0,0,1-.748.831h-8.306c-.5-.083-.748-.249-.748-.831V76.4a.807.807,0,0,1,.914-.831h1.578c.25,0,.25-.084.25-.25V60.948a.22.22,0,0,0-.25-.249H131.2a.643.643,0,0,1-.665-.581v-2.16a.655.655,0,0,1,.665-.664h8.554a.8.8,0,0,1,.582.747v1.91a.7.7,0,0,1-.748.748h-1.911ZM45.818,68.174V57.958a.763.763,0,0,1,.831-.748h5.9c1.08.084,2.16.166,3.239.332a6.568,6.568,0,0,1,2.409.914,4.755,4.755,0,0,1,2.243,2.824,7.4,7.4,0,0,1,.166,3.572,5.27,5.27,0,0,1-1.91,3.073,8.228,8.228,0,0,1-1.412.914c-.166.084-.166.166-.083.332l1.329,2.492,1.827,3.488,1.5,2.99c.249.5,0,.914-.5.914H58.193a1.248,1.248,0,0,1-1.163-.831L55.2,74.487l-1.163-2.326L52.961,70c-.083-.166-.166-.166-.249-.166h-2.16c-.249,0-.332.083-.332.332v7.641c0,.914-.249,1.163-1.163,1.163H46.9c-.664,0-.914-.249-1-.914v-.332C45.818,74.57,45.818,71.331,45.818,68.174Zm4.319-4.651v2.658c0,.166,0,.25.166.25l3.322-.166a3.313,3.313,0,0,0,1.744-.748,2.73,2.73,0,0,0,.748-2.823,2.35,2.35,0,0,0-1.163-1.5,5.884,5.884,0,0,0-1.993-.5,11.131,11.131,0,0,0-1.661-.083H50.137ZM36.349,73.988H27.3c-.166.5-.415,1.08-.581,1.661-.332.914-.581,1.744-1,2.658a1.072,1.072,0,0,1-1,.747H21.9a.51.51,0,0,1-.5-.747,6.576,6.576,0,0,1,.415-1.163c.166-.5.415-1,.581-1.412l1.08-2.823.831-2.243c.5-1.412,1.08-2.824,1.578-4.153.332-.831.664-1.661.914-2.409l1.578-4.236a11.093,11.093,0,0,1,.581-1.5,1.393,1.393,0,0,1,1.5-1.08h2.99a1.176,1.176,0,0,1,1.163.747l1,2.576,1.5,3.9,1.661,4.319c.332.748.581,1.5.914,2.326.5,1.246,1,2.492,1.412,3.655l.831,2.16.5,1.33c.166.415-.083.664-.5.664H38.509a.874.874,0,0,1-.831-.664l-.748-1.993a6,6,0,0,0-.581-2.326Zm-4.4-12.625h-.083c-1.08,2.991-2.16,6.063-3.322,9.136h6.645C34.107,67.427,33.027,64.354,31.947,61.364ZM78.46,73.988H69.739c-.166,0-.249.083-.332.249-.332.914-.664,1.827-1,2.824a5.615,5.615,0,0,1-.581,1.412.955.955,0,0,1-.748.5l-1.163.083H64.34c-.664,0-.914-.331-.664-1l.831-2.243,1.412-3.738c.415-1.163.831-2.243,1.329-3.406l1.246-3.238,1.578-4.153,1.246-3.156a1.268,1.268,0,0,1,1.5-1H75.8a1.087,1.087,0,0,1,1.163.831c.415.914.748,1.827,1.08,2.741.5,1.412,1.08,2.824,1.578,4.153l1.246,3.156,1.412,3.572a23.134,23.134,0,0,0,.831,2.16l1.412,3.571.332.914c.166.415,0,.665-.415.748h-.664c-.914,0-1.827,0-2.741-.083a.875.875,0,0,1-.831-.665c-.249-.582-.415-1.164-.664-1.828a10.615,10.615,0,0,1-1.08-2.409Zm-4.4-12.625h-.083c-1.08,2.991-2.16,6.063-3.239,9.136H77.38C76.217,67.427,75.137,64.354,74.058,61.364ZM14.339,79.47l-2.658-.249a8.658,8.658,0,0,1-2.824-.914,12.105,12.105,0,0,1-2.99-2.076,8.139,8.139,0,0,1-1.744-2.326,9.042,9.042,0,0,1-.831-2.076,12.748,12.748,0,0,1-.415-5.316,11.991,11.991,0,0,1,.914-3.488A10.2,10.2,0,0,1,6.7,59.2a12.455,12.455,0,0,1,2.658-1.578,13.512,13.512,0,0,1,6.562-.747c.914.083,1.827.331,2.824.5l.748.249a.726.726,0,0,1,.415.748c0,.581-.083,1.162-.083,1.827l-.084.831c-.083.331-.249.415-.581.331s-.664-.166-.914-.249a7.364,7.364,0,0,0-2.326-.581,12.266,12.266,0,0,0-1.744-.083,7.272,7.272,0,0,0-2.658.581,7.114,7.114,0,0,0-2.989,2.658,7.756,7.756,0,0,0-1,2.742A12.687,12.687,0,0,0,7.445,69.5a7.617,7.617,0,0,0,1.163,3.239,7.783,7.783,0,0,0,2.408,2.243,7.717,7.717,0,0,0,4.07.914,9.027,9.027,0,0,0,1.5-.083l2.243-.581a1.414,1.414,0,0,1,.581-.083.593.593,0,0,1,.581.664c0,.747.083,1.5.083,2.16a.647.647,0,0,1-.5.748,11.985,11.985,0,0,1-3.821.747H14.5C14.339,79.387,14.339,79.387,14.339,79.47Z" transform="translate(0 -1.825)"/>
  </g>
</svg>
