<svg xmlns="http://www.w3.org/2000/svg" width="165.512" height="46.423" viewBox="0 0 165.512 46.423">
  <g id="usa-cars" transform="translate(-8.505 -71.733)" opacity="0.5">
    <path id="Path_94" data-name="Path 94" d="M157.5,94.257h6.46a3.618,3.618,0,0,0,1.03,2.153,4.317,4.317,0,0,0,2.378.852,4.735,4.735,0,0,0,2.2-.448,1.837,1.837,0,0,0,.851-1.3c0-.628-1.3-1.7-3.857-2.557-.673-.224-1.3-.672-1.571-.672-2.557-1.077-4.306-2.153-4.933-3.005a5.178,5.178,0,0,1-1.076-3.229,5.679,5.679,0,0,1,2.376-4.531,11.265,11.265,0,0,1,6.909-1.929,11.852,11.852,0,0,1,6.683,1.7,6.9,6.9,0,0,1,2.781,4.755h-6.46a4.969,4.969,0,0,0-1.076-1.749,4.09,4.09,0,0,0-2.333-.584,4.4,4.4,0,0,0-1.793.4,1.533,1.533,0,0,0-.629,1.3c0,.4,1.122,1.3,3.005,2.153a14.555,14.555,0,0,1,3.23,1.526,8.25,8.25,0,0,1,3.9,2.333,4.78,4.78,0,0,1,1.3,3.229,6.053,6.053,0,0,1-2.6,4.979,11.253,11.253,0,0,1-6.907,1.929,13.219,13.219,0,0,1-7.087-1.7,6.948,6.948,0,0,1-2.78-5.607Zm-17.942,6.684,4.574-20.724h6.235L149.287,85.2a11.646,11.646,0,0,1,3.005-4.082,7.333,7.333,0,0,1,4.531-1.525h.224l.449.224L155.971,86.5h-.9A10.957,10.957,0,0,1,154,86.273a5.026,5.026,0,0,0-3.632,1.525,13.831,13.831,0,0,0-2.378,6.459l-1.48,6.684h-6.951Zm-9.915-2.154a11.079,11.079,0,0,1-3,1.884,8.98,8.98,0,0,1-3.679.672,6.783,6.783,0,0,1-4.306-1.48,6.536,6.536,0,0,1-1.706-4.575,6.717,6.717,0,0,1,1.706-4.709,10.842,10.842,0,0,1,6.011-2.153c.493,0,1.525-.224,2.376-.224,2.825-.224,4.306-1.076,4.306-2.153a1.477,1.477,0,0,0-.627-1.3,2.786,2.786,0,0,0-1.93-.628,4.123,4.123,0,0,0-1.928.4,9.761,9.761,0,0,0-1.3,1.526h-6.28A7.042,7.042,0,0,1,122.33,81.3a12.834,12.834,0,0,1,6.683-1.7,11.584,11.584,0,0,1,6.46,1.7,5.908,5.908,0,0,1,2.376,4.979v.852a8.631,8.631,0,0,1-.224,1.076L135.7,97.488l-.224.4v1.749c0,.224.447.628.671.628v.673h-6.683Zm.9-7.8a7.2,7.2,0,0,1-3.275.9c-2.376.4-3.632,1.526-3.632,2.781a1.807,1.807,0,0,0,.627,1.526,2.5,2.5,0,0,0,1.706.628,3.522,3.522,0,0,0,2.825-1.032,12.362,12.362,0,0,0,1.749-4.575v-.225ZM107.887,93.4h6.685a9.586,9.586,0,0,1-3.454,5.787,11.952,11.952,0,0,1-7.131,2.376A10.211,10.211,0,0,1,96.9,99.192a10.7,10.7,0,0,1-2.377-7.312,13.33,13.33,0,0,1,3-8.836,11.431,11.431,0,0,1,8.165-3.453,10.4,10.4,0,0,1,6.727,2.153A8.051,8.051,0,0,1,115.2,87.8h-6.683a3.691,3.691,0,0,0-.853-2.377,3.179,3.179,0,0,0-2.152-.9,3.382,3.382,0,0,0-3.005,2.377,11.143,11.143,0,0,0-1.3,5.607,4.513,4.513,0,0,0,.627,2.781,3.026,3.026,0,0,0,2.378,1.121,3.56,3.56,0,0,0,2.2-.627,7.4,7.4,0,0,0,1.254-2.377h.223v0Z" transform="translate(-5.009 -0.457)" fill="#cf4037" fill-rule="evenodd"/>
    <path id="Path_95" data-name="Path 95" d="M59.523,100.438,73.787,72.4h7.759l5.831,28.034H80.067l-.9-4.979H69.257l-1.974,4.979h-7.76ZM78.542,89.9,76.793,79.086,71.858,89.9h6.684Zm-41.67,1.48h6.684a4.111,4.111,0,0,0,1.121,3.23,5.982,5.982,0,0,0,3.679,1.076,8.029,8.029,0,0,0,3.453-.673,2.307,2.307,0,0,0,1.3-2.108c0-1.121-1.57-2.377-4.575-3.678A19.154,19.154,0,0,0,45.977,88.1,9.253,9.253,0,0,1,41.446,84.7a7.845,7.845,0,0,1-1.48-4.575c0-2.557.807-4.71,2.557-6.01a12,12,0,0,1,7.715-2.377c3.5,0,6.5.9,8.253,2.377a8.466,8.466,0,0,1,3.229,6.684h-6.5a2.878,2.878,0,0,0-1.3-2.781,5.524,5.524,0,0,0-3.409-1.076,5.608,5.608,0,0,0-3.05.852,2.614,2.614,0,0,0-1.032,1.929c0,.9,1.48,2.2,4.082,3.5.852.4,1.929.807,2.333,1.032a15.225,15.225,0,0,1,5.2,3.453,7.052,7.052,0,0,1,1.749,4.53,7.475,7.475,0,0,1-3.05,6.46,13.051,13.051,0,0,1-8.208,2.377c-3.678,0-6.684-.852-8.388-2.377a9.616,9.616,0,0,1-3.271-7.314ZM12.516,72.4h6.908L16.643,86.8a11.322,11.322,0,0,0-.448,2.6c0,.9-.179,1.794-.179,2.2a3.208,3.208,0,0,0,1.076,2.6A4.482,4.482,0,0,0,20.1,95.28a5.39,5.39,0,0,0,3.678-1.3c.852-.9,1.7-3.05,2.109-6.056L29.158,72.4H36.47L33.688,85.1a9.707,9.707,0,0,0-.224,1.121C32.388,91.6,31.087,95.28,30.19,96.581a10.058,10.058,0,0,1-4.306,3.185,13.139,13.139,0,0,1-6.01,1.3c-3.453,0-6.235-.852-7.939-2.377A8.872,8.872,0,0,1,8.84,91.782a70.232,70.232,0,0,1,1.121-7.76l.18-.4L12.516,72.4Z" transform="translate(-0.02)" fill="#236ab3" fill-rule="evenodd"/>
    <path id="Path_96" data-name="Path 96" d="M95.768,109.587h83.294v-.628H95.768Zm0-1.794h83.294v-.627H95.768Zm0-1.794h83.294v-.628H95.768Zm0-1.795h83.294v-.627H95.768Zm.582-26.553-1.211-5.023H96.8l.584,3.632,1.793-3.632h1.659l-2.87,5.023Zm4.083,0,1.3-5.023H103.3l-1.256,5.023Zm2.915,0,1.256-5.023h1.569l1.525,3.319.807-3.319h1.527l-1.256,5.023H107.2l-1.569-3.275-.807,3.275h-1.48Zm11.035-1.7h1.525a1.931,1.931,0,0,1-.986,1.346,3.368,3.368,0,0,1-1.93.538,2.935,2.935,0,0,1-1.93-.628,2,2,0,0,1-.718-1.659,2.191,2.191,0,0,1,.224-1.166,2.988,2.988,0,0,1,.673-.987,3.382,3.382,0,0,1,1.076-.673,4.7,4.7,0,0,1,1.347-.224,3.033,3.033,0,0,1,1.793.493,1.537,1.537,0,0,1,.718,1.346H114.65a.751.751,0,0,0-.268-.628,1.137,1.137,0,0,0-.718-.179,1.322,1.322,0,0,0-.718.179,1.456,1.456,0,0,0-.583.449,3.408,3.408,0,0,0-.359.718,2.221,2.221,0,0,0-.137.719,1.083,1.083,0,0,0,.359.851,1.158,1.158,0,0,0,.9.314,1.378,1.378,0,0,0,.764-.179,1.156,1.156,0,0,0,.493-.628Zm2.152,1.7,1.256-5.023h4.352l-.27,1.031h-2.735l-.224.9h2.511l-.222.987h-2.557l-.27,1.121h2.916l-.224.987h-4.532Zm5.608,0,1.21-5.023h1.615l1.48,3.319.851-3.319h1.525l-1.256,5.023h-1.615l-1.525-3.275-.807,3.275h-1.479Zm7.759,0,.988-3.992h-1.749l.224-1.031h5.068l-.268,1.031H132.5l-1.032,3.992H129.9Zm6.5,0,1.256-5.023h1.571l-.988,3.947h3.049l-.268,1.076Zm5.2,0,1.256-5.023h4.35l-.268,1.031H144.21l-.268.9H146.5l-.224.987h-2.557l-.268,1.121h2.916l-.268.987h-4.488Zm5.563,0,1.3-5.023h1.571l-1.256,5.023Zm6.413-5.023H155.2l-.718,2.825a.163.163,0,0,1-.046.135,3.925,3.925,0,0,1-.583,1.525,1.377,1.377,0,0,1-.718.493,3.037,3.037,0,0,1-1.166.179,2.271,2.271,0,0,1-1.434-.359,1.216,1.216,0,0,1-.493-1.032V76.08c.044-.089.044-.224.089-.359h1.391c-.044.089-.044.224-.089.314V76.3a.44.44,0,0,0,.135.359.759.759,0,0,0,.449.135.52.52,0,0,0,.447-.179,1.786,1.786,0,0,0,.315-.763l.805-3.228Zm2.692,5.023.988-3.992h-1.749l.268-1.031h5.068l-.268,1.031h-1.706l-.986,3.992Zm3.991,0,1.256-5.023h4.306l-.224,1.031h-2.781l-.222.9h2.511l-.224.987h-2.557l-.268,1.121h2.96l-.268.987Zm5.562,0,1.256-5.023h1.571l1.525,3.319.807-3.319h1.525l-1.256,5.023h-1.571l-1.525-3.275-.851,3.275h-1.48Zm6.818-1.615h1.48a.943.943,0,0,0,.313.628,1.8,1.8,0,0,0,.807.179,1.378,1.378,0,0,0,.764-.179.422.422,0,0,0,.268-.359c0-.224-.359-.4-.986-.672-.27-.089-.449-.135-.583-.179a2.959,2.959,0,0,1-1.078-.628,1.12,1.12,0,0,1-.359-.807A1.332,1.332,0,0,1,173.9,72.9a2.924,2.924,0,0,1,1.659-.4,3.391,3.391,0,0,1,1.839.4,1.513,1.513,0,0,1,.718,1.211h-1.434a.513.513,0,0,0-.27-.493,1.28,1.28,0,0,0-.762-.179,1.486,1.486,0,0,0-.673.135.456.456,0,0,0-.224.359c0,.179.315.4.942.583.224.089.4.179.539.224a3.875,3.875,0,0,1,1.166.628,1.282,1.282,0,0,1-.315,2.018,3.429,3.429,0,0,1-1.793.4,3.519,3.519,0,0,1-1.93-.448,1.556,1.556,0,0,1-.717-1.3Z" transform="translate(-5.045 -0.044)" fill-rule="evenodd"/>
    <path id="Path_97" data-name="Path 97" d="M9.076,120.51l.987-5.248h.807l-.493,2.647,4.351-2.647H15.8l-3.588,2.153,3.408,3.095h-.9l-3.005-2.781-1.48.852-.359,1.929H9.076Zm10.989-.448a2.876,2.876,0,0,1-.942.4,3.93,3.93,0,0,1-1.076.135,3.284,3.284,0,0,1-1.435-.269,1.21,1.21,0,0,1-.672-.763.9.9,0,0,1,.179-.583,1.14,1.14,0,0,1,.583-.4,7.054,7.054,0,0,1,1.884-.269h.359c1.032-.044,1.526-.268,1.48-.627a.623.623,0,0,0-.448-.493,2.767,2.767,0,0,0-1.167-.179,3.111,3.111,0,0,0-1.255.179.664.664,0,0,0-.448.583h-.673a1.073,1.073,0,0,1,.673-.852,4.47,4.47,0,0,1,1.749-.268,3.812,3.812,0,0,1,1.57.268c.4.18.628.4.672.719v.224a.492.492,0,0,1-.044.224l-.315,1.749v.089c-.044,0,0,.045,0,.09s.045.089.09.135a.333.333,0,0,0,.224.045h.224a.334.334,0,0,0,.224-.045l-.045.359a.4.4,0,0,1-.224.045h-.269a1.245,1.245,0,0,1-.628-.089.655.655,0,0,1-.268-.4Zm.223-1.48c-.314.045-.763.089-1.3.135-.583,0-.986.045-1.211.045a1.9,1.9,0,0,0-.851.269.572.572,0,0,0-.224.493.752.752,0,0,0,.448.539,2.939,2.939,0,0,0,.942.179,2.533,2.533,0,0,0,1.57-.4A1.79,1.79,0,0,0,20.289,118.582Zm5.922,1.48a2.867,2.867,0,0,1-.942.4,3.93,3.93,0,0,1-1.076.135,3.418,3.418,0,0,1-1.435-.269,1.133,1.133,0,0,1-.628-.763.678.678,0,0,1,.135-.583,1.1,1.1,0,0,1,.628-.4,6.445,6.445,0,0,1,1.884-.269h.314c1.032-.044,1.526-.268,1.48-.627a.622.622,0,0,0-.448-.493,2.765,2.765,0,0,0-1.166-.179,3.116,3.116,0,0,0-1.256.179.663.663,0,0,0-.448.583h-.672a1.073,1.073,0,0,1,.672-.852A4.473,4.473,0,0,1,25,116.654a3.67,3.67,0,0,1,1.57.268c.4.18.628.4.672.719v.224a.492.492,0,0,1-.044.224l-.314,1.749v.18c0,.045.045.089.089.135a.333.333,0,0,0,.224.045h.224a.333.333,0,0,0,.224-.045l-.045.359a.333.333,0,0,1-.224.045h-.269a1.243,1.243,0,0,1-.628-.089.659.659,0,0,1-.268-.4Zm.224-1.48c-.314.045-.718.089-1.3.135-.583,0-.987.045-1.211.045a1.7,1.7,0,0,0-.807.269.417.417,0,0,0-.224.493.688.688,0,0,0,.4.539,2.939,2.939,0,0,0,.942.179,2.533,2.533,0,0,0,1.57-.4,1.8,1.8,0,0,0,.628-1.255Zm4.216,1.929a1.531,1.531,0,0,1-.4.045.756.756,0,0,1-.314.045,2.266,2.266,0,0,1-.852-.135.48.48,0,0,1-.314-.4.566.566,0,0,1-.045-.269,2.662,2.662,0,0,0,.089-.315l.4-2.421h-.9l.044-.315h.942l.224-1.076h.718l-.224,1.076h1.166l-.089.315H29.933l-.448,2.557a.4.4,0,0,1-.045.224v.089a.448.448,0,0,0,.179.224.988.988,0,0,0,.4.045h.314c.135,0,.224-.045.359-.045l-.044.359Zm1.434-1.166a1.042,1.042,0,0,0,.628.673,2.715,2.715,0,0,0,1.3.224,2.782,2.782,0,0,0,1.167-.179.5.5,0,0,0,.314-.584c-.045-.268-.583-.493-1.659-.763H33.7a5.234,5.234,0,0,1-1.391-.493.682.682,0,0,1,.045-1.3,3.447,3.447,0,0,1,1.525-.268,4.135,4.135,0,0,1,1.66.268,1.3,1.3,0,0,1,.763.852H35.63a.936.936,0,0,0-.583-.583,2.766,2.766,0,0,0-1.211-.224,2.524,2.524,0,0,0-.942.179c-.269.135-.359.269-.314.493,0,.135.135.269.269.359a6.107,6.107,0,0,0,1.166.359,5.708,5.708,0,0,1,1.749.538.719.719,0,0,1,.448.583c.09.36-.089.628-.493.807a3.616,3.616,0,0,1-1.7.315,4.023,4.023,0,0,1-1.794-.315,1.456,1.456,0,0,1-.852-.942h.716Zm5.249,1.166.986-5.248h.718l-.359,2.018a3.139,3.139,0,0,1,.942-.493,3.93,3.93,0,0,1,1.076-.135,2.677,2.677,0,0,1,1.3.268.926.926,0,0,1,.583.719v.179a.4.4,0,0,1-.045.224l-.448,2.466H41.37L41.864,118v-.224a.085.085,0,0,0,0-.135.473.473,0,0,0-.359-.449,2.763,2.763,0,0,0-2.422.225,1.813,1.813,0,0,0-.673,1.211l-.359,1.884h-.716Zm7.176-2.242h3.9v-.18a1.451,1.451,0,0,0-.583-.808,2.621,2.621,0,0,0-1.255-.268,2.565,2.565,0,0,0-1.39.314,1.609,1.609,0,0,0-.674.943Zm3.723,1.076h.718a1.655,1.655,0,0,1-.807.942,3.735,3.735,0,0,1-1.7.315,3.9,3.9,0,0,1-1.884-.4,1.617,1.617,0,0,1-.807-1.211,1.641,1.641,0,0,1,.583-1.66,3.052,3.052,0,0,1,2.108-.672,3.783,3.783,0,0,1,1.884.4,1.663,1.663,0,0,1,.807,1.166,1.255,1.255,0,0,0,.045.359v.089h-4.71v.448a1.235,1.235,0,0,0,.628.807,2.984,2.984,0,0,0,1.346.315,2.848,2.848,0,0,0,1.166-.224A1.284,1.284,0,0,0,48.234,119.345Zm7.356-2.6-.718,3.768H54.2l.089-.583a2.72,2.72,0,0,1-.942.493,3.093,3.093,0,0,1-1.121.179,2.682,2.682,0,0,1-1.3-.269.925.925,0,0,1-.583-.718v-.4l.493-2.467h.672l-.448,2.512c0,.09-.045.136-.045.18v.179a.664.664,0,0,0,.4.449,2.36,2.36,0,0,0,.9.135,2.664,2.664,0,0,0,1.526-.359,1.812,1.812,0,0,0,.672-1.211l.359-1.884h.718Zm2.422,3.768-1.839-3.768h.672l1.57,3.185,2.153-3.185h.718l-2.557,3.768Zm4.486-2.242h3.9v-.18a1.266,1.266,0,0,0-.583-.808,2.621,2.621,0,0,0-1.255-.268,2.569,2.569,0,0,0-1.391.314,1.827,1.827,0,0,0-.673.943Zm3.723,1.076h.718a1.651,1.651,0,0,1-.807.942,3.738,3.738,0,0,1-1.7.315,3.9,3.9,0,0,1-1.884-.4,1.619,1.619,0,0,1-.807-1.211,1.643,1.643,0,0,1,.583-1.66,3.132,3.132,0,0,1,2.109-.672,3.783,3.783,0,0,1,1.884.4,1.663,1.663,0,0,1,.807,1.166c0,.089.044.179.044.359v.089h-4.71v.224a.4.4,0,0,0,.045.224,1.048,1.048,0,0,0,.583.807,2.99,2.99,0,0,0,1.346.315,2.856,2.856,0,0,0,1.167-.224A1.29,1.29,0,0,0,66.22,119.345Zm1.929,1.166.987-5.248h.718l-.987,5.248Zm10.81,0,.9-4.8h-2.6l.089-.449h5.742l-.045.449H80.663l-.9,4.8Zm3.723-2.242h3.9v-.18A1.266,1.266,0,0,0,86,117.28a2.5,2.5,0,0,0-1.255-.268,2.569,2.569,0,0,0-1.391.314,1.833,1.833,0,0,0-.673.943Zm3.724,1.076h.718a1.386,1.386,0,0,1-.807.942,3.738,3.738,0,0,1-1.7.315,3.9,3.9,0,0,1-1.884-.4,1.749,1.749,0,0,1-.807-1.211,1.642,1.642,0,0,1,.584-1.66,3.175,3.175,0,0,1,2.153-.672,3.606,3.606,0,0,1,1.839.4,1.539,1.539,0,0,1,.807,1.166.779.779,0,0,1,.044.359v.089H82.639v.224a.405.405,0,0,0,.044.224,1.048,1.048,0,0,0,.583.807,2.984,2.984,0,0,0,1.346.315,2.848,2.848,0,0,0,1.166-.224,1.293,1.293,0,0,0,.627-.672Zm1.929,1.166.986-5.248h.718l-.987,5.248Zm2.825,0,.135-.627h.9l-.135.627Zm5.966-1.749a4.051,4.051,0,0,1,.089-1.256,2.694,2.694,0,0,1,.583-1.121,2.407,2.407,0,0,1,1.032-.718,3,3,0,0,1,1.347-.269,3.3,3.3,0,0,1,1.839.493,1.919,1.919,0,0,1,.807,1.346,3.66,3.66,0,0,1-.09,1.391,3.227,3.227,0,0,1-.673,1.211,2.492,2.492,0,0,1-.942.628,3.68,3.68,0,0,1-1.256.223,3.454,3.454,0,0,1-1.884-.493,2.359,2.359,0,0,1-.851-1.436Zm3.094-2.961a2.512,2.512,0,0,0-1.032.224,2.075,2.075,0,0,0-.762.628,2.839,2.839,0,0,0-.4.987,2.772,2.772,0,0,0-.044,1.211,1.42,1.42,0,0,0,.583,1.032,1.756,1.756,0,0,0,1.256.359,2.053,2.053,0,0,0,1.032-.224,1.5,1.5,0,0,0,.718-.673,1.925,1.925,0,0,0,.4-1.032,3.438,3.438,0,0,0,.046-1.166,1.484,1.484,0,0,0-.583-.986,1.948,1.948,0,0,0-1.212-.36Zm6.551,4.71.268-1.3h-3.545l.046-.359,4.216-3.275h.673l-.583,3.275H109.1l-.09.359h-1.256l-.224,1.3Zm-2.423-1.659h2.781l.493-2.557-3.274,2.557Zm7.8,1.659.807-4.172c-.4.136-.764.269-1.122.36a5.1,5.1,0,0,1-1.122.135l.046-.314a8.1,8.1,0,0,0,1.615-.449,2.766,2.766,0,0,0,.9-.673h.583l-.944,5.114h-.762Zm6.863-2.916a2.012,2.012,0,0,0-1.347.4,1.157,1.157,0,0,0-.4,1.121,1.2,1.2,0,0,0,.583.807,2.333,2.333,0,0,0,1.3.315,1.768,1.768,0,0,0,1.3-.449,1.224,1.224,0,0,0,.4-1.077,1.416,1.416,0,0,0-.583-.851,2.5,2.5,0,0,0-1.256-.268Zm-1.839.225a2.826,2.826,0,0,1,.9-.449,3.894,3.894,0,0,1,1.076-.135,3.135,3.135,0,0,1,1.659.4,1.476,1.476,0,0,1,.807,1.076,1.359,1.359,0,0,1-.583,1.391,2.89,2.89,0,0,1-1.839.538,3.513,3.513,0,0,1-1.928-.448,1.923,1.923,0,0,1-.807-1.391,2.655,2.655,0,0,1,.583-2.422,2.868,2.868,0,0,1,2.376-.987,3.266,3.266,0,0,1,1.571.359,1.3,1.3,0,0,1,.718.9v.045h-.673a1.116,1.116,0,0,0-.537-.673,2.411,2.411,0,0,0-1.078-.224,2.142,2.142,0,0,0-1.479.538,2.372,2.372,0,0,0-.764,1.481Zm8.568,1.031.044-.449H128.7l-.09.449Zm7.175,1.659a1.432,1.432,0,0,1,.494-1.076,6.069,6.069,0,0,1,1.749-.942c.135-.045.359-.136.583-.224a7.624,7.624,0,0,0,1.254-.539,1.454,1.454,0,0,0,.361-.4.974.974,0,0,0,.089-.493,1.033,1.033,0,0,0-.537-.763,2.429,2.429,0,0,0-1.212-.269,2.463,2.463,0,0,0-1.254.315,1.383,1.383,0,0,0-.494.942h-.762a1.452,1.452,0,0,1,.718-1.211,3.08,3.08,0,0,1,1.7-.449,3.663,3.663,0,0,1,1.8.4,1.32,1.32,0,0,1,.807.987c.135.673-.673,1.346-2.333,1.974h-.09a13.063,13.063,0,0,0-1.525.718.954.954,0,0,0-.493.584h4.216l-.09.448h-4.979ZM141.935,118a2.6,2.6,0,0,0-1.434.359.88.88,0,0,0-.4.9,1.136,1.136,0,0,0,.629.764,2.746,2.746,0,0,0,1.345.268,2.554,2.554,0,0,0,1.391-.359.842.842,0,0,0,.4-.851,1.093,1.093,0,0,0-.583-.764,2.984,2.984,0,0,0-1.346-.314Zm.135-2.2a1.982,1.982,0,0,0-1.122.269.606.606,0,0,0-.359.672.831.831,0,0,0,.539.673,2.445,2.445,0,0,0,1.21.224,2.069,2.069,0,0,0,1.122-.269.7.7,0,0,0,.359-.718.833.833,0,0,0-.539-.628,2.44,2.44,0,0,0-1.21-.224Zm-1.21,1.929a1.779,1.779,0,0,1-.718-.449.683.683,0,0,1-.315-.538.9.9,0,0,1,.493-.987,3.652,3.652,0,0,1,1.749-.359,3.856,3.856,0,0,1,1.706.359,1.231,1.231,0,0,1,.762.9.764.764,0,0,1-.224.763,2.46,2.46,0,0,1-1.032.493,2.3,2.3,0,0,1,.944.448,1.165,1.165,0,0,1,.4.719,1.053,1.053,0,0,1-.539,1.166,3.819,3.819,0,0,1-1.972.4,4.2,4.2,0,0,1-1.974-.359,1.247,1.247,0,0,1-.807-1.032,1,1,0,0,1,.268-.942,2.736,2.736,0,0,1,1.256-.583Zm4.709,1.032a2.429,2.429,0,0,1,.09-1.256,2.629,2.629,0,0,1,.539-1.121,2.39,2.39,0,0,1,1.03-.718,3.294,3.294,0,0,1,1.347-.269,3.191,3.191,0,0,1,1.839.493,1.922,1.922,0,0,1,.807,1.346,2.926,2.926,0,0,1-.09,1.391,3.227,3.227,0,0,1-.673,1.211,2.477,2.477,0,0,1-.942.628,3.68,3.68,0,0,1-1.256.223,3.454,3.454,0,0,1-1.884-.493,2.122,2.122,0,0,1-.807-1.436Zm3.049-2.961a2.512,2.512,0,0,0-1.032.224,2.075,2.075,0,0,0-.762.628,2.8,2.8,0,0,0-.4.987,2.744,2.744,0,0,0-.046,1.211,1.589,1.589,0,0,0,.583,1.032,1.829,1.829,0,0,0,1.256.359,1.954,1.954,0,0,0,1.032-.224,1.5,1.5,0,0,0,.718-.673,1.925,1.925,0,0,0,.4-1.032,3.438,3.438,0,0,0,.046-1.166,1.634,1.634,0,0,0-.539-.986,2.09,2.09,0,0,0-1.256-.36Zm7.626,4.71a9.615,9.615,0,0,1,1.256-2.288,16.635,16.635,0,0,1,2.152-2.288h-4.485l.089-.359h5.294l-.044.359a14.374,14.374,0,0,0-2.154,2.288,9.922,9.922,0,0,0-1.3,2.288h-.807Zm8.478,0,.224-1.3h-3.5l.044-.359,4.172-3.275h.718l-.583,3.275h1.212l-.046.359h-1.256l-.268,1.3Zm-2.466-1.659h2.825l.449-2.557Zm8.79,1.659.27-1.3h-3.545l.09-.359,4.172-3.275h.718l-.583,3.275h1.21l-.089.359h-1.212l-.268,1.3h-.764Zm-2.423-1.659h2.827l.449-2.557Z" transform="translate(-0.033 -2.535)" fill="#fff" fill-rule="evenodd"/>
    <path id="Path_98" data-name="Path 98" d="M12.855,110.008l-2.421,1.884L11.51,109.2,8.5,107.72H12l.851-2.6.807,2.6h3.589L14.2,109.2l1.211,2.691Zm11.887,0-2.422,1.884,1.032-2.691-2.961-1.48h3.5l.852-2.6.807,2.6h3.544l-3.005,1.48,1.211,2.691-2.557-1.884Zm11.886,0-2.422,1.884,1.031-2.691-3.005-1.48h3.544l.852-2.6.807,2.6h3.544l-3.05,1.48,1.255,2.691Zm11.886,0-2.422,1.884,1.031-2.691-3.005-1.48h3.544l.852-2.6.807,2.6h3.543l-3.049,1.48,1.255,2.691Zm11.842,0-2.422,1.884L59.01,109.2,56,107.72h3.5l.852-2.6.807,2.6h3.588L61.7,109.2l1.256,2.691-2.6-1.884Zm11.887,0-2.422,1.884,1.031-2.691-2.96-1.48h3.5l.852-2.6.807,2.6h3.588l-3.05,1.48,1.211,2.691-2.556-1.884Zm11.886,0-2.422,1.884,1.032-2.691-2.961-1.48h3.5l.852-2.6.807,2.6H88.48l-3.005,1.48,1.211,2.691-2.557-1.884Z" transform="translate(0 -1.944)" fill-rule="evenodd"/>
  </g>
</svg>
